<?xml version="1.0" encoding="utf-8"?><!-- Generator: Adobe Illustrator 25.2.1, SVG Export Plug-In . SVG Version: 6.00 Build 0)  -->
<svg style="enable-background:new 0 0 128 128;" id="Layer_1" version="1.0" viewBox="0 0 128 128" x="0px" xmlns="http://www.w3.org/2000/svg"
    y="0px" xml:space="preserve">
<style type="text/css">
	.st0{fill:#FFCC4D;}
	.st1{fill:#664500;}
	.st2{fill:#FFFFFF;}
	.st3{fill:#5DADEC;}
</style>
    <polyline points="117,150 43,90 83.75,36.33 158,95 " />
    <path class="st0" d="M97.8,63.72c0,18.62-15.1,33.72-33.72,33.72c-18.62,0-33.72-15.1-33.72-33.72C30.36,45.1,45.46,30,64.08,30
	C82.7,30,97.8,45.1,97.8,63.72" />
    <path class="st1" d="M83.67,63.34c-0.11-0.25-2.81-6.18-8.35-6.18c-5.54,0-8.24,5.92-8.35,6.18c-0.17,0.39-0.06,0.84,0.27,1.11
	c0.33,0.27,0.8,0.28,1.14,0.03c0.02-0.02,2.36-1.69,6.94-1.69c4.54,0,6.88,1.65,6.94,1.69c0.16,0.12,0.36,0.19,0.56,0.19
	c0.21,0,0.41-0.07,0.58-0.2C83.73,64.19,83.84,63.73,83.67,63.34z M61.19,63.34c-0.11-0.25-2.81-6.18-8.35-6.18
	c-5.54,0-8.24,5.92-8.35,6.18c-0.17,0.39-0.06,0.84,0.27,1.11c0.33,0.27,0.8,0.28,1.14,0.03c0.02-0.02,2.36-1.69,6.94-1.69
	c4.54,0,6.88,1.65,6.94,1.69c0.16,0.12,0.36,0.19,0.56,0.19c0.21,0,0.41-0.07,0.58-0.2C61.25,64.19,61.36,63.73,61.19,63.34z
	 M64.08,71.22c-6.79,0-11.29-0.79-16.86-1.87c-1.27-0.25-3.75,0-3.75,3.75c0,7.49,8.61,16.86,20.61,16.86
	c12,0,20.61-9.37,20.61-16.86c0-3.75-2.47-3.99-3.75-3.75C75.37,70.42,70.87,71.22,64.08,71.22z" />
    <path class="st2"
        d="M47.22,73.09c0,0,5.62,1.87,16.86,1.87s16.86-1.87,16.86-1.87s-3.75,7.49-16.86,7.49S47.22,73.09,47.22,73.09z" />
    <path class="st3" d="M95.93,50.61c0,5.17-4.19,9.37-9.37,9.37c-5.17,0-9.37-4.19-9.37-9.37s7.49-18.73,9.37-18.73
	C88.43,31.87,95.93,45.43,95.93,50.61z" />
</svg>
